<svg id="Layer_1" data-name="Layer 1" xmlns="http://www.w3.org/2000/svg" viewBox="0 0 150 150"><defs><style>.cls-1{fill:#ff0089;}</style></defs><path class="cls-1" d="M80.85,118.05c4.21,0,7.05-.15,9.86.09.84.07,1.59,1.24,2.39,1.9-.8.69-1.59,2-2.39,2q-16.5.19-33,0c-.8,0-1.58-1.3-2.37-2,.8-.66,1.57-1.81,2.42-1.88,2.81-.24,5.65-.09,9.61-.09-1.42-2-2.4-3.41-3.32-4.8-9.11-13.7-19-27-27.13-41.22C21.48,45,42.29,12.58,72.69,11.46,78,11.26,83.48,13,88.8,14.13c1.18.26,2,2,3,3-1.48.27-3.16,1.15-4.42.73a40.12,40.12,0,0,0-25.93,0C41.09,24.53,30.74,49.07,39,66.72c8.44,18,20.42,33.48,32.43,49,1.9,2.46,3.84,2.29,5.69-.09,12-15.54,24.45-30.75,32.27-49.1,5.62-13.2,3-24.92-4.93-36.16-1.36-1.91-1.87-4.43-2.78-6.66,2,1.31,4.48,2.22,5.85,4,10,13,12.11,27,5.22,42.13-7.18,15.74-17.47,29.45-28,43C83.64,114.26,82.61,115.69,80.85,118.05Z"/><path class="cls-1" d="M73.69,137.12q-26.73,0-53.45,0-14.4,0-7.47-12.54c3.38-6.11,6.91-12.14,10.17-18.31,2-3.84,4.93-5.59,9.25-5.41,3.83.16,7.67-.12,11.48.15,1.15.08,2.22,1.32,3.32,2a26.32,26.32,0,0,1-3.47,2,4.59,4.59,0,0,1-2.47,0c-9.66-1.93-15.58,2-18.91,11.16-1.57,4.32-4.45,8.16-6.7,12.24-1.47,2.66-.54,4.1,2.39,4.35,1.15.1,2.33,0,3.49,0h105.9c1.33,0,3,.44,3.9-.2,1.06-.78,2.34-3,1.95-3.73-3.82-7.38-7.85-14.67-12.15-21.78-.71-1.18-3-1.85-4.59-2-4-.28-8,0-12-.2-1-.06-1.93-1.33-2.9-2,1-.68,1.91-1.92,2.89-2,4.82-.17,9.74-.54,14.44.23,2.35.38,5,2.62,6.35,4.76,4.08,6.46,7.67,13.23,11.29,20,3.53,6.58.82,11.08-6.79,11.12C111,137.19,92.34,137.12,73.69,137.12Z"/><path class="cls-1" d="M95.39,51.67A21.2,21.2,0,0,1,75.33,73.05c-11,.57-21.12-7.91-22.17-18.69-1.17-11.87,6.47-22,18-23.51,1.56-.2,3.31,1,5,1.63-1.43.84-2.76,2.13-4.29,2.44-7.88,1.64-13.78,7.59-14.54,15A17.62,17.62,0,0,0,67.84,67.51a17.57,17.57,0,0,0,19.47-4.9A17.24,17.24,0,0,0,88,41.75c-.37-.55-1.08-1-1.19-1.57a23.6,23.6,0,0,1-.16-3.58c1.14.32,2.92.3,3.32,1,2.4,4.39,4.48,9,6.66,13.45Z"/><path class="cls-1" d="M38.66,110.27c3.52,1.83,7.11,3.54,10.49,5.6.68.41.55,2.16.8,3.3a11.4,11.4,0,0,1-3.09,0c-3.68-1-7.34-2.15-11-3.38a33.42,33.42,0,0,1-4-2c1.39-.79,2.75-1.66,4.2-2.32a5.11,5.11,0,0,1,2,0Z"/><path class="cls-1" d="M110.46,111.44a9.18,9.18,0,0,1,3,.06,16.63,16.63,0,0,1,3.11,1.92c-1.05.79-2.14,2.29-3.15,2.25-4.33-.18-8.19.57-11.67,3.35-.66.53-2.24-.09-3.4-.18.42-1.12.52-2.78,1.32-3.25,3.3-2,6.82-3.53,10.25-5.25Z"/><path class="cls-1" d="M35.63,128.38c-2.66,0-5.33.12-8-.08-.78-.06-1.49-1-2.24-1.59.71-.8,1.39-2.25,2.12-2.28q8.22-.3,16.45,0c.75,0,1.45,1.43,2.18,2.19-.85.61-1.66,1.66-2.56,1.74-2.64.24-5.32.09-8,.09Z"/><path class="cls-1" d="M112.46,128.38c-2.65,0-5.32.12-8-.08-.77-.05-1.47-1-2.2-1.57.68-.8,1.34-2.27,2-2.3,5.47-.2,11-.2,16.43,0,.77,0,1.49,1.41,2.24,2.17-.86.61-1.68,1.68-2.59,1.76-2.64.24-5.31.09-8,.09Z"/></svg>