<svg id="Layer_1" data-name="Layer 1" xmlns="http://www.w3.org/2000/svg" viewBox="0 0 121.57 25.58"><defs><style>.cls-1{opacity:0.3;}.cls-2{fill:#2b303a;}.cls-3{fill:#a6adb4;}.cls-4{fill:#fff;}.cls-5{fill:#00b5ad;}</style></defs><g class="cls-1"><path class="cls-2" d="M118,4.53c2.68,2.39,1.86,13.26.38,15.5s-15.81,1.17-18.59.3S93.9,22,93.9,22l2.41-4.68S96.44,8,98.43,5.78,115.34,2.15,118,4.53"/></g><path class="cls-2" d="M32.41,7.86a4.63,4.63,0,0,0-3.15-1,4.55,4.55,0,0,0-2.12.45,4.24,4.24,0,0,0-1.3,1,4.24,4.24,0,0,0-1.29-1,4.62,4.62,0,0,0-2.13-.45,4.61,4.61,0,0,0-3.15,1,3.66,3.66,0,0,0-1.19,2.85v5.64h1.67V10.48a2,2,0,0,1,.71-1.59,2.81,2.81,0,0,1,1.91-.62,2.83,2.83,0,0,1,1.93.62,2,2,0,0,1,.7,1.59v5.87h1.67V10.48a2,2,0,0,1,.7-1.59,2.88,2.88,0,0,1,1.93-.62,2.79,2.79,0,0,1,1.91.62,2,2,0,0,1,.71,1.59v5.87h1.69V10.71A3.6,3.6,0,0,0,32.41,7.86Zm12.38.35a5.76,5.76,0,0,0-1.87-1,7.06,7.06,0,0,0-4.39,0,5.76,5.76,0,0,0-1.87,1,5.36,5.36,0,0,0-1.3,1.59,4.13,4.13,0,0,0,0,3.75,5.12,5.12,0,0,0,1.3,1.59,6,6,0,0,0,1.87,1,7.26,7.26,0,0,0,4.39,0,6,6,0,0,0,1.87-1,4.91,4.91,0,0,0,1.28-1.58,4.1,4.1,0,0,0,.45-1.88,4.15,4.15,0,0,0-.45-1.9A4.87,4.87,0,0,0,44.79,8.21ZM43.63,14a4.72,4.72,0,0,1-5.82,0,3,3,0,0,1,0-4.78,4.73,4.73,0,0,1,5.82,0,3,3,0,0,1,0,4.77ZM51.9,7.19a6.48,6.48,0,0,0-1.78.63,5.19,5.19,0,0,0-1.86,1.66,3.86,3.86,0,0,0-.68,2.2,4,4,0,0,0,1.86,3.44,8.38,8.38,0,0,0,4.83,1.23h1.19V14.92H54.08A5.91,5.91,0,0,1,50.59,14a2.73,2.73,0,0,1,0-4.61,5.92,5.92,0,0,1,3.5-.94h1.38V7H54.27A12.2,12.2,0,0,0,51.9,7.19ZM80.15,9.12A5.6,5.6,0,0,0,78,7.42a6.79,6.79,0,0,0-2.83-.58,6.16,6.16,0,0,0-4.1,1.35,4.42,4.42,0,0,0-1.24,5.36,4.8,4.8,0,0,0,1.23,1.56,5.62,5.62,0,0,0,1.87,1.05,7.13,7.13,0,0,0,2.29.35h0a7.18,7.18,0,0,0,2.09-.3c.46-.15.76-.27.76-.27V14.07a3.55,3.55,0,0,1-1,.65,5.07,5.07,0,0,1-1.85.33,4.38,4.38,0,0,1-3-1,3.12,3.12,0,0,1,0-4.81,4.38,4.38,0,0,1,2.94-1,4.1,4.1,0,0,1,3,1,3.65,3.65,0,0,1,1.08,2.8v.82h0V16h0v.32H81V12.17a6.8,6.8,0,0,0-.19-1.72A3.8,3.8,0,0,0,80.15,9.12ZM90.69,8a5.73,5.73,0,0,0-6.86,0,4,4,0,0,0-1.31,3.13v5.24h1.67V10.88A2.33,2.33,0,0,1,85,9a3.82,3.82,0,0,1,4.49,0,2.33,2.33,0,0,1,.83,1.88v5.47H92V11.11A4,4,0,0,0,90.69,8Zm-24.3,3.77a3.25,3.25,0,0,1-1.23,2.38,4.77,4.77,0,0,1-5.74-.08,3,3,0,0,1,0-4.79,4.4,4.4,0,0,1,3-1,4.47,4.47,0,0,1,1.72.32,3.56,3.56,0,0,1,1,.58l-5.66,3,.89,1.19,7.26-3.87-.27-.35a5.48,5.48,0,0,0-2.1-1.73,6.61,6.61,0,0,0-2.78-.57,7.15,7.15,0,0,0-2.24.34,6.19,6.19,0,0,0-1.89,1A5,5,0,0,0,57,9.79a4.17,4.17,0,0,0,0,3.77,4.87,4.87,0,0,0,1.3,1.58,6.09,6.09,0,0,0,1.87,1,7,7,0,0,0,2.2.34h0a6.21,6.21,0,0,0,4-1.3,4.62,4.62,0,0,0,1.8-3.4l0-.4H66.42Zm-51.45,0a3.32,3.32,0,0,1-1.23,2.38,4.32,4.32,0,0,1-2.83.92,4.35,4.35,0,0,1-2.92-1A3,3,0,0,1,8,9.26a4.45,4.45,0,0,1,3-1,4.54,4.54,0,0,1,1.72.32,3.9,3.9,0,0,1,1,.58L8,12.17l.89,1.19,7.25-3.87-.26-.35a5.56,5.56,0,0,0-2.1-1.73A6.68,6.68,0,0,0,11,6.84a7.21,7.21,0,0,0-2.25.34,6,6,0,0,0-1.88,1,5,5,0,0,0-1.3,1.58,4.17,4.17,0,0,0,0,3.77,4.87,4.87,0,0,0,1.3,1.58,5.87,5.87,0,0,0,1.87,1,6.92,6.92,0,0,0,2.19.34h0a6.18,6.18,0,0,0,4-1.3,4.62,4.62,0,0,0,1.8-3.4l0-.4H15Z"/><path class="cls-2" d="M62.34,16.64a7,7,0,0,1-2.24-.35,5.92,5.92,0,0,1-1.91-1,5,5,0,0,1-1.33-1.62,4.26,4.26,0,0,1,0-3.89,5,5,0,0,1,1.33-1.62,6,6,0,0,1,1.93-1A7.12,7.12,0,0,1,62.4,6.7a6.49,6.49,0,0,1,2.83.6,5.56,5.56,0,0,1,2.16,1.76l.35.48-7.48,4-1-1.4,5.62-3a3.49,3.49,0,0,0-.78-.44,4.47,4.47,0,0,0-1.67-.31,4.27,4.27,0,0,0-2.87,1,2.92,2.92,0,0,0,0,4.59,4.24,4.24,0,0,0,2.84,1A4.16,4.16,0,0,0,65.08,14a3.15,3.15,0,0,0,1.18-2.29l0-.47h2l0,.55a4.76,4.76,0,0,1-1.85,3.49A6.28,6.28,0,0,1,62.34,16.64ZM62.4,7a6.85,6.85,0,0,0-2.2.34,5.61,5.61,0,0,0-1.85,1,4.81,4.81,0,0,0-1.26,1.54,4,4,0,0,0,0,3.65A4.81,4.81,0,0,0,58.35,15a6,6,0,0,0,1.83,1,6.74,6.74,0,0,0,2.16.34,6.06,6.06,0,0,0,3.91-1.27A4.54,4.54,0,0,0,68,11.8l0-.26H66.54l0,.23a3.43,3.43,0,0,1-1.27,2.46,4.43,4.43,0,0,1-2.91.95,4.51,4.51,0,0,1-3-1,3.19,3.19,0,0,1,0-5,4.94,4.94,0,0,1,4.81-.71,3.75,3.75,0,0,1,1,.6l.15.12-5.7,3,.73,1,7-3.75-.17-.23a5.42,5.42,0,0,0-2.06-1.69A6.45,6.45,0,0,0,62.4,7ZM10.89,16.64a6.87,6.87,0,0,1-2.24-.35,5.82,5.82,0,0,1-1.91-1A5,5,0,0,1,5.4,13.62a4.34,4.34,0,0,1,0-3.89A5.12,5.12,0,0,1,6.74,8.11a6.07,6.07,0,0,1,1.92-1A7.14,7.14,0,0,1,11,6.7a6.52,6.52,0,0,1,2.83.6,5.53,5.53,0,0,1,2.15,1.76l.36.48-7.49,4-1.05-1.4,5.62-3a3.42,3.42,0,0,0-.77-.44,4.47,4.47,0,0,0-1.67-.31,4.25,4.25,0,0,0-2.87,1,2.91,2.91,0,0,0-1.13,2.3A2.88,2.88,0,0,0,8.05,14a4.21,4.21,0,0,0,2.83,1A4.19,4.19,0,0,0,13.63,14a3.19,3.19,0,0,0,1.18-2.29l0-.47h2l0,.55A4.75,4.75,0,0,1,15,15.31,6.3,6.3,0,0,1,10.89,16.64ZM11,7a6.85,6.85,0,0,0-2.2.34,5.61,5.61,0,0,0-1.85,1A4.84,4.84,0,0,0,5.63,9.85a4.09,4.09,0,0,0,0,3.65A4.84,4.84,0,0,0,6.9,15a5.9,5.9,0,0,0,1.83,1,6.68,6.68,0,0,0,2.15.34,6,6,0,0,0,3.91-1.27,4.5,4.5,0,0,0,1.75-3.31l0-.26H15.09l0,.23a3.44,3.44,0,0,1-1.28,2.46,4.41,4.41,0,0,1-2.91.95,4.46,4.46,0,0,1-3-1,3.17,3.17,0,0,1,0-5,4.53,4.53,0,0,1,3-1,4.61,4.61,0,0,1,1.77.33,3.69,3.69,0,0,1,1,.6l.15.12-5.7,3,.74,1,7-3.75-.17-.23a5.5,5.5,0,0,0-2.06-1.69A6.45,6.45,0,0,0,11,7Zm29.78,9.67a7,7,0,0,1-2.24-.35,6,6,0,0,1-1.91-1,5.2,5.2,0,0,1-1.33-1.63,4.22,4.22,0,0,1,0-3.87,5.31,5.31,0,0,1,1.33-1.63,6.44,6.44,0,0,1,1.91-1,7.13,7.13,0,0,1,2.23-.35h0A7.13,7.13,0,0,1,43,7.06a6.32,6.32,0,0,1,1.91,1h0a5,5,0,0,1,1.32,1.61,4.41,4.41,0,0,1,.46,2,4.33,4.33,0,0,1-.46,1.94,4.92,4.92,0,0,1-1.32,1.62,5.92,5.92,0,0,1-1.91,1A6.94,6.94,0,0,1,40.73,16.64Zm0-9.67a6.68,6.68,0,0,0-2.15.34,5.85,5.85,0,0,0-1.82,1,5.08,5.08,0,0,0-1.27,1.55,4,4,0,0,0,0,3.63A5,5,0,0,0,36.74,15a5.81,5.81,0,0,0,1.83,1,6.9,6.9,0,0,0,4.31,0,5.71,5.71,0,0,0,1.83-1A5,5,0,0,0,46,13.51a4.13,4.13,0,0,0,0-3.67,4.88,4.88,0,0,0-1.25-1.53h0a5.9,5.9,0,0,0-1.83-1A6.68,6.68,0,0,0,40.73,7Zm34.5,9.67a7.34,7.34,0,0,1-2.33-.36A5.63,5.63,0,0,1,71,15.21a5.08,5.08,0,0,1-1.26-1.61,4.39,4.39,0,0,1-.44-1.92A4.53,4.53,0,0,1,71,8.08a6.36,6.36,0,0,1,4.17-1.37h0a6.92,6.92,0,0,1,2.87.59A5.78,5.78,0,0,1,80.25,9h0a3.82,3.82,0,0,1,.65,1.38,6.91,6.91,0,0,1,.2,1.75v4.31h-2V12.11a3.55,3.55,0,0,0-1-2.71,4,4,0,0,0-2.88-1,4.2,4.2,0,0,0-2.85,1,3,3,0,0,0,0,4.61,4.23,4.23,0,0,0,2.87.95A5,5,0,0,0,77,14.6,3.76,3.76,0,0,0,78,14l.22-.21V16l-.08,0a7.65,7.65,0,0,1-.78.27,7,7,0,0,1-2.12.31ZM75.16,7a6.09,6.09,0,0,0-4,1.32,4.22,4.22,0,0,0-1.61,3.39A3.93,3.93,0,0,0,70,13.49,4.77,4.77,0,0,0,71.14,15,5.54,5.54,0,0,0,73,16a7.1,7.1,0,0,0,2.24.34h0a6.89,6.89,0,0,0,2.06-.3,6.72,6.72,0,0,0,.67-.23v-1.5a3.3,3.3,0,0,1-.83.49,5.13,5.13,0,0,1-1.9.34,4.52,4.52,0,0,1-3-1,3.25,3.25,0,0,1,0-5,4.47,4.47,0,0,1,3-1,4.26,4.26,0,0,1,3.06,1.07,3.8,3.8,0,0,1,1.12,2.9v4.11h1.44v-4a6.45,6.45,0,0,0-.19-1.69A3.53,3.53,0,0,0,80,9.2,5.4,5.4,0,0,0,78,7.54,6.66,6.66,0,0,0,75.18,7ZM55.59,16.48H54.27a8.61,8.61,0,0,1-4.9-1.25,4.13,4.13,0,0,1-1.92-3.55,4,4,0,0,1,.7-2.28,5.36,5.36,0,0,1,1.91-1.69,6.6,6.6,0,0,1,1.81-.65h0a12.37,12.37,0,0,1,2.4-.2h1.32v1.7H54.08a5.82,5.82,0,0,0-3.42.92,2.59,2.59,0,0,0,0,4.39,5.8,5.8,0,0,0,3.41.92h1.51ZM51.92,7.32a6.34,6.34,0,0,0-1.73.62,5,5,0,0,0-1.82,1.61,3.72,3.72,0,0,0-.66,2.13A3.86,3.86,0,0,0,49.52,15a8.25,8.25,0,0,0,4.75,1.21h1.06V15.05H54.08a6.1,6.1,0,0,1-3.57-1,2.86,2.86,0,0,1,0-4.82,6.08,6.08,0,0,1,3.57-1h1.25V7.13H54.27a11.84,11.84,0,0,0-2.35.19Zm40.22,9.16H90.21v-5.6a2.2,2.2,0,0,0-.78-1.78,3.7,3.7,0,0,0-4.33,0,2.17,2.17,0,0,0-.78,1.78v5.6H82.39V11.11a4.08,4.08,0,0,1,1.36-3.22,5.07,5.07,0,0,1,3.5-1.19h0a5.07,5.07,0,0,1,3.5,1.19h0a4.08,4.08,0,0,1,1.36,3.22Zm-1.67-.26h1.41V11.11a3.85,3.85,0,0,0-1.27-3h0A4.87,4.87,0,0,0,87.28,7h0a4.84,4.84,0,0,0-3.33,1.11,3.85,3.85,0,0,0-1.27,3v5.11h1.41V10.88a2.44,2.44,0,0,1,.87-2,3.93,3.93,0,0,1,4.67,0,2.44,2.44,0,0,1,.87,2Zm-56.73.26h-2v-6A1.84,1.84,0,0,0,31.13,9a3.16,3.16,0,0,0-3.68,0,1.81,1.81,0,0,0-.65,1.49v6H24.87v-6A1.85,1.85,0,0,0,24.21,9a2.73,2.73,0,0,0-1.84-.59A2.75,2.75,0,0,0,20.54,9a1.87,1.87,0,0,0-.66,1.49v6H18V10.71a3.75,3.75,0,0,1,1.24-3A4.73,4.73,0,0,1,22.41,6.7h0a5,5,0,0,1,2.18.47,4.55,4.55,0,0,1,1.23.92,4.26,4.26,0,0,1,1.25-.92,4.83,4.83,0,0,1,2.16-.47h0A4.8,4.8,0,0,1,32.5,7.76a3.72,3.72,0,0,1,1.24,3Zm-1.69-.26h1.43V10.71A3.47,3.47,0,0,0,32.33,8h0a4.48,4.48,0,0,0-3.05-1h0a4.61,4.61,0,0,0-2.05.43,4.34,4.34,0,0,0-1.27,1l-.09.11-.1-.11a4,4,0,0,0-1.25-1A4.55,4.55,0,0,0,22.43,7h0a4.48,4.48,0,0,0-3.05,1,3.5,3.5,0,0,0-1.15,2.75v5.51h1.41V10.48a2.13,2.13,0,0,1,.75-1.68,3,3,0,0,1,2-.66,3,3,0,0,1,2,.65,2.16,2.16,0,0,1,.75,1.69v5.74h1.41V10.48a2.09,2.09,0,0,1,.74-1.68,3,3,0,0,1,2-.66,3,3,0,0,1,2,.66,2.05,2.05,0,0,1,.75,1.68Zm8.68-1a4.51,4.51,0,0,1-3-1,3.18,3.18,0,0,1,0-5,4.51,4.51,0,0,1,3-1,4.45,4.45,0,0,1,3,1,3.17,3.17,0,0,1,0,5h0A4.4,4.4,0,0,1,40.73,15.18Zm0-6.78a4.24,4.24,0,0,0-2.84,1,2.92,2.92,0,0,0,0,4.58,4.26,4.26,0,0,0,2.84,1,4.13,4.13,0,0,0,2.81-1,2.91,2.91,0,0,0,0-4.57A4.18,4.18,0,0,0,40.73,8.4Z"/><path class="cls-3" d="M43.61,24.14a3,3,0,0,1-1-.16,2.31,2.31,0,0,1-.82-.48l.25-.38a2.62,2.62,0,0,0,.74.44,2.16,2.16,0,0,0,.81.15,1.46,1.46,0,0,0,.83-.21.67.67,0,0,0,.31-.6.56.56,0,0,0-.08-.3.83.83,0,0,0-.24-.21,2.34,2.34,0,0,0-.41-.16l-.57-.15C43.19,22,43,22,42.8,21.9a1.89,1.89,0,0,1-.45-.21.72.72,0,0,1-.27-.28A.92.92,0,0,1,42,21a1.32,1.32,0,0,1,.12-.57,1.25,1.25,0,0,1,.35-.41,1.71,1.71,0,0,1,.51-.24,2.18,2.18,0,0,1,.63-.08,2.36,2.36,0,0,1,.9.16,1.83,1.83,0,0,1,.65.42l-.27.33a1.52,1.52,0,0,0-.58-.37,2.18,2.18,0,0,0-.72-.12,1.78,1.78,0,0,0-.41,0,1,1,0,0,0-.34.15.67.67,0,0,0-.22.25.69.69,0,0,0-.09.36.55.55,0,0,0,.06.28.49.49,0,0,0,.19.19,1.59,1.59,0,0,0,.34.14l.49.13a7.47,7.47,0,0,1,.73.2,1.93,1.93,0,0,1,.52.23.89.89,0,0,1,.32.32,1,1,0,0,1,.11.46,1.13,1.13,0,0,1-.46.95A2,2,0,0,1,43.61,24.14Z"/><path class="cls-3" d="M52.07,23.85l-.14.07-.22.08-.28.08a1.84,1.84,0,0,1-.33,0,1.29,1.29,0,0,1-.35-.05.73.73,0,0,1-.29-.15.86.86,0,0,1-.2-.26.87.87,0,0,1-.07-.37V20.2h-.6v-.45h.6V18.29h.56v1.46h1v.45h-1v2.93a.45.45,0,0,0,.16.35.61.61,0,0,0,.36.11,1.08,1.08,0,0,0,.42-.08l.23-.11Z"/><path class="cls-3" d="M57.87,24.14a1.19,1.19,0,0,1-1-.46,2.3,2.3,0,0,1-.35-1.4V19.75h.56v2.43c0,1,.33,1.47,1,1.47a1.37,1.37,0,0,0,.49-.09,1.26,1.26,0,0,0,.44-.24,1.62,1.62,0,0,0,.37-.37,2.06,2.06,0,0,0,.26-.49V19.75h.56v3.58c0,.16.07.23.21.23v.5l-.24,0a.47.47,0,0,1-.32-.12.37.37,0,0,1-.14-.29v-.6a2,2,0,0,1-1.82,1.06Z"/><path class="cls-3" d="M67.05,24.14a1.9,1.9,0,0,1-.83-.18,2.14,2.14,0,0,1-1.09-1.2,2.4,2.4,0,0,1-.15-.84,2.53,2.53,0,0,1,.15-.87,2.17,2.17,0,0,1,.41-.71A1.76,1.76,0,0,1,67,19.68a1.67,1.67,0,0,1,1,.28,2.1,2.1,0,0,1,.67.69V18h.57v5.31c0,.16.06.23.2.23v.5l-.23,0a.49.49,0,0,1-.34-.12.37.37,0,0,1-.13-.29v-.45a2,2,0,0,1-.7.67A1.84,1.84,0,0,1,67.05,24.14Zm.11-.49a1.24,1.24,0,0,0,.45-.09,1.65,1.65,0,0,0,.44-.22A1.62,1.62,0,0,0,68.4,23a.87.87,0,0,0,.18-.42V21.25a1.27,1.27,0,0,0-.24-.42,2.31,2.31,0,0,0-.36-.34,1.63,1.63,0,0,0-.43-.23,1.29,1.29,0,0,0-.45-.09,1.34,1.34,0,0,0-.64.15,1.53,1.53,0,0,0-.48.39,1.91,1.91,0,0,0-.31.56,1.81,1.81,0,0,0-.11.65,1.84,1.84,0,0,0,.12.66,1.82,1.82,0,0,0,.34.55,1.62,1.62,0,0,0,.51.38A1.49,1.49,0,0,0,67.16,23.65Z"/><path class="cls-3" d="M74.22,18.85V18h.56v.83Zm0,5.21V19.75h.56v4.31Z"/><path class="cls-3" d="M81.66,24.14a2.21,2.21,0,0,1-.87-.17,2.15,2.15,0,0,1-1.12-1.2,2.36,2.36,0,0,1,0-1.71,2.26,2.26,0,0,1,.45-.71,2.08,2.08,0,0,1,.68-.49,2.12,2.12,0,0,1,1.71,0,2.08,2.08,0,0,1,.68.49,2.26,2.26,0,0,1,.45.71,2.36,2.36,0,0,1,0,1.71,2.26,2.26,0,0,1-.45.71,2.08,2.08,0,0,1-.68.49A2.19,2.19,0,0,1,81.66,24.14Zm-1.57-2.21a1.85,1.85,0,0,0,.12.67,1.79,1.79,0,0,0,.33.55,1.49,1.49,0,0,0,.5.36,1.4,1.4,0,0,0,.61.14,1.47,1.47,0,0,0,.61-.14,1.63,1.63,0,0,0,.5-.37,1.79,1.79,0,0,0,.33-.55,1.72,1.72,0,0,0,.13-.68,1.67,1.67,0,0,0-.13-.67,1.73,1.73,0,0,0-.33-.56,1.63,1.63,0,0,0-.5-.37,1.38,1.38,0,0,0-1.21,0,1.55,1.55,0,0,0-.5.38,1.79,1.79,0,0,0-.33.55A1.77,1.77,0,0,0,80.09,21.93Z"/><path class="cls-3" d="M90,24.14A3,3,0,0,1,89,24a2.35,2.35,0,0,1-.83-.48l.26-.38a2.49,2.49,0,0,0,.74.44,2.15,2.15,0,0,0,.8.15,1.44,1.44,0,0,0,.83-.21.67.67,0,0,0,.31-.6.48.48,0,0,0-.08-.3.63.63,0,0,0-.24-.21,2.06,2.06,0,0,0-.41-.16l-.56-.15c-.25-.06-.47-.12-.65-.18a1.89,1.89,0,0,1-.45-.21.63.63,0,0,1-.26-.28.91.91,0,0,1-.09-.43,1.2,1.2,0,0,1,.13-.57,1.23,1.23,0,0,1,.34-.41,1.66,1.66,0,0,1,.52-.24,2.07,2.07,0,0,1,.62-.08,2.36,2.36,0,0,1,.9.16,2,2,0,0,1,.66.42l-.28.33a1.52,1.52,0,0,0-.58-.37A2.16,2.16,0,0,0,90,20.1a1.87,1.87,0,0,0-.42,0,.84.84,0,0,0-.33.15.61.61,0,0,0-.23.25.68.68,0,0,0-.08.36.7.7,0,0,0,0,.28.57.57,0,0,0,.19.19,1.59,1.59,0,0,0,.34.14l.49.13a6.76,6.76,0,0,1,.73.2,1.93,1.93,0,0,1,.52.23.82.82,0,0,1,.32.32,1,1,0,0,1,.11.46,1.15,1.15,0,0,1-.45.95A2,2,0,0,1,90,24.14Z"/><path class="cls-4" d="M116.22,2.31c2.89,2.11,3.13,13,1.86,15.38s-15.63,2.68-18.47,2.09S93.89,22,93.89,22l2-4.89s-.76-9.22,1-11.65S113.34.19,116.22,2.31"/><path class="cls-5" d="M114.84,9.69l.92-.13L115.32,7a.48.48,0,0,1,.11-.36,1.35,1.35,0,0,1,.35-.31,2.59,2.59,0,0,1,.5-.25,3.83,3.83,0,0,1,.58-.16l-.27-1.27a3.85,3.85,0,0,0-.86.44,3.18,3.18,0,0,0-.64.56L115,5l-1,.38ZM112,8.16a1,1,0,0,1,.23-.24,1.43,1.43,0,0,1,.37-.2,2.43,2.43,0,0,1,.48-.14c0,.2,0,.41,0,.62a2.81,2.81,0,0,1,0,.53,3.14,3.14,0,0,1-.86-.07c-.18-.06-.28-.13-.29-.24a.42.42,0,0,1,.06-.26m-.77,1.09a1.58,1.58,0,0,0,.58.38,3.57,3.57,0,0,0,.94.24,8.55,8.55,0,0,0,1.32.09V9.68c0-.16,0-.34,0-.54s0-.4,0-.62,0-.44,0-.66,0-.44-.07-.64a3.48,3.48,0,0,0-.17-.74,1.91,1.91,0,0,0-.29-.59,1.19,1.19,0,0,0-.47-.36,1.17,1.17,0,0,0-.66-.07,1.71,1.71,0,0,0-.79.32,2.06,2.06,0,0,0-.52.81l.79.49a1.28,1.28,0,0,1,.27-.47.48.48,0,0,1,.29-.15.28.28,0,0,1,.26.06,1.3,1.3,0,0,1,.17.26,3.88,3.88,0,0,0-.85.36,2.87,2.87,0,0,0-.63.47,1.68,1.68,0,0,0-.37.54,1,1,0,0,0-.08.58,1,1,0,0,0,.24.52m-5.37,1.6,1.09-.14c0-.15,0-.34-.07-.56s0-.43-.05-.66,0-.46,0-.68a4,4,0,0,1,0-.62,2.07,2.07,0,0,1,.12-.45c.06-.11.13-.18.22-.19a.18.18,0,0,1,.15,0,1,1,0,0,1,.12.19c0,.09.06.18.09.29s0,.23.06.36a4,4,0,0,1,.06.51l0,.53v.88l0,.39,1.13-.16a1.59,1.59,0,0,1,0-.17c0-.08,0-.15,0-.19s0-.36,0-.57,0-.41,0-.61,0-.41,0-.6a2.75,2.75,0,0,1,0-.52,1.16,1.16,0,0,1,.11-.37.27.27,0,0,1,.2-.16.2.2,0,0,1,.18.07.66.66,0,0,1,.15.25c0,.11.07.23.11.37s.06.29.08.44a5.61,5.61,0,0,1,.06.59c0,.21,0,.4,0,.59s0,.35,0,.5,0,.26,0,.34l1.11,0c0-.24,0-.48,0-.75a7.47,7.47,0,0,0-.08-.8,8.84,8.84,0,0,0-.23-1.09,4.68,4.68,0,0,0-.37-1,2.11,2.11,0,0,0-.53-.66.84.84,0,0,0-.66-.19.81.81,0,0,0-.51.28,1.67,1.67,0,0,0-.28.63,1.56,1.56,0,0,0-.44-.6.81.81,0,0,0-.66-.15.82.82,0,0,0-.36.15,1.48,1.48,0,0,0-.3.31l0-.14-1-.13c.09.8.16,1.45.22,2s.1.93.14,1.25.06.54.08.68,0,.25,0,.3Zm-3-1.57a1.17,1.17,0,0,1,0-.2,2,2,0,0,1,0-.35.85.85,0,0,1,.09-.31.58.58,0,0,1,.18-.23.64.64,0,0,1,.29-.12.67.67,0,0,1,.39.06,1,1,0,0,1,.33.27l-.58.54-.58.54c0-.07,0-.14-.07-.2m2.24-.84a4.56,4.56,0,0,0-.37-.65,2.81,2.81,0,0,0-.47-.5,1.64,1.64,0,0,0-.54-.31,1.19,1.19,0,0,0-.59-.06,1.46,1.46,0,0,0-.72.28,1.57,1.57,0,0,0-.45.51,1.88,1.88,0,0,0-.21.67,2.62,2.62,0,0,0,0,.74,2.91,2.91,0,0,0,.31,1,2.37,2.37,0,0,0,.54.69,2,2,0,0,0,.7.4,1.52,1.52,0,0,0,.73.07,1.84,1.84,0,0,0,1-.43,3,3,0,0,0,.64-.84l-.63-.62a2.8,2.8,0,0,1-.29.44,3.69,3.69,0,0,1-.29.28,1.21,1.21,0,0,1-.26.15l-.2.07a.79.79,0,0,1-.54-.16Zm-6.61-1a2.09,2.09,0,0,1,1,.16.7.7,0,0,1,.44.56.75.75,0,0,1-.28.68,2.36,2.36,0,0,1-1,.47ZM98,12.07l1.12-.17L99,10.58l.25-.09a3.23,3.23,0,0,0,.38.68,1.31,1.31,0,0,0,.5.41,1.91,1.91,0,0,0,.72.17,6.47,6.47,0,0,0,1.06,0V10.49l-.39.11a1.58,1.58,0,0,1-.43,0,.67.67,0,0,1-.32-.1.68.68,0,0,1-.25-.23,1.81,1.81,0,0,1-.21-.37A2,2,0,0,0,101.4,8a1.5,1.5,0,0,0-.38-.8,2.19,2.19,0,0,0-.83-.55A4.38,4.38,0,0,0,99,6.36a7.91,7.91,0,0,0-1.54,0Z"/><path class="cls-5" d="M116.08,16.08l1-.23-.16-1.12-1,.14Zm-3-1.66c0-.07,0-.13,0-.2a1,1,0,0,1,0-.35,1,1,0,0,1,.08-.31.71.71,0,0,1,.19-.23.45.45,0,0,1,.28-.12.69.69,0,0,1,.4.06.93.93,0,0,1,.33.26l-.59.55-.57.54c0-.07-.06-.14-.08-.2m2.24-.84a3.72,3.72,0,0,0-.36-.65,2.57,2.57,0,0,0-.47-.51,1.84,1.84,0,0,0-.54-.31,1.35,1.35,0,0,0-.6,0,1.55,1.55,0,0,0-.71.27,1.71,1.71,0,0,0-.45.52,1.82,1.82,0,0,0-.21.67,2.55,2.55,0,0,0,0,.73,2.83,2.83,0,0,0,.3,1,2.63,2.63,0,0,0,.55.7,2.18,2.18,0,0,0,.69.4,1.7,1.7,0,0,0,.74.07,1.81,1.81,0,0,0,1-.43,3,3,0,0,0,.64-.85l-.63-.61a1.79,1.79,0,0,1-.29.43,1.51,1.51,0,0,1-.29.28,1.08,1.08,0,0,1-.26.16.49.49,0,0,1-.2.06.75.75,0,0,1-.54-.15Zm-5,3.4,1.67-.34-.1-1.19-.62.38-.22-4.56L109.57,11l.09,1,.39,0Zm-2.79-1.85c0-.35,0-.71-.08-1.09a2,2,0,0,1,.5.16,1.93,1.93,0,0,1,.4.24,1.21,1.21,0,0,1,.29.31.8.8,0,0,1,.14.36v.06a.91.91,0,0,1-.25.69,1.76,1.76,0,0,1-.95.38q0-.58-.06-1.11m-.93,2.13a5.14,5.14,0,0,0,1.39,0,2.43,2.43,0,0,0,.91-.31,1.92,1.92,0,0,0,.58-.55,1.72,1.72,0,0,0,.27-.69,2.25,2.25,0,0,0,0-.73,1.93,1.93,0,0,0-.27-.71,2.66,2.66,0,0,0-.54-.63,4,4,0,0,0-.77-.52,4.56,4.56,0,0,0-1-.37l-.06-1.46-1,.24Zm-2.52-1.34a1,1,0,0,1,.23-.24,2.12,2.12,0,0,1,.37-.2,2.43,2.43,0,0,1,.48-.14c0,.2,0,.41,0,.62a3.79,3.79,0,0,1,0,.53,3.14,3.14,0,0,1-.86-.07c-.18-.05-.27-.13-.29-.23a.43.43,0,0,1,.06-.27M103.35,17a1.5,1.5,0,0,0,.58.38,3.49,3.49,0,0,0,.93.24,8.6,8.6,0,0,0,1.33.09v-.28c0-.16,0-.33,0-.54s0-.4,0-.62,0-.44,0-.66a6.33,6.33,0,0,0-.06-.64,5.7,5.7,0,0,0-.17-.74,2.33,2.33,0,0,0-.3-.59,1.23,1.23,0,0,0-.46-.36,1.31,1.31,0,0,0-.67-.07,1.63,1.63,0,0,0-.78.32,1.94,1.94,0,0,0-.53.82l.79.48a1.38,1.38,0,0,1,.27-.47.54.54,0,0,1,.3-.15.26.26,0,0,1,.25.06.9.9,0,0,1,.17.26,4.72,4.72,0,0,0-.85.36,2.87,2.87,0,0,0-.63.47,1.86,1.86,0,0,0-.37.54,1.07,1.07,0,0,0-.08.58.94.94,0,0,0,.25.52M100,18.51l1.06-.29c0-.21,0-.43,0-.66s0-.46,0-.69l1.44,1.66.71-1-.82-.78-.83-.79,1.29-1.94-1-.52c-.16.26-.32.54-.49.83l-.49.84-.08-2.52-1.09-.08Z"/></svg>