<svg id="Layer_1" data-name="Layer 1" xmlns="http://www.w3.org/2000/svg" viewBox="0 0 150 150"><defs><style>.cls-1{fill:#ff0089;}</style></defs><path class="cls-1" d="M74.75,137.65q-27.22,0-54.46,0c-7.54,0-9.54-2-9.54-9.37,0-22,.06-44-.08-65.94,0-3.34.79-5.75,3.65-7.53,1.69-1,3.05-2.65,4.78-3.6,9.89-5.44,15-13,13.07-24.93-.88-5.53,2.1-7.79,7.71-8a75.14,75.14,0,0,1,8.49,0c8.17.6,15.82,0,21.89-6.64,2.39-2.63,6.12-3,8.53-.28,6.61,7.4,15.07,7.09,23.81,7,14.75-.24,15.23.08,14.72,14.53-.22,6.19,1.23,10.65,6.75,13.47,12.45,6.34,16,16.27,15,30.06-1.31,17.39-.3,35-.33,52.43,0,6.77-2.13,8.87-9,8.88Q102.23,137.69,74.75,137.65ZM17.07,58.16C28.56,67.07,39.51,75.48,50.3,84.09c1.21,1,1.51,3,2.24,4.62-1.58-.42-3.47-.42-4.68-1.34C38,79.94,28.35,72.33,18.6,64.8a37.52,37.52,0,0,0-3.39-2.07v66.89c1.85-1.32,3.18-2.22,4.44-3.2L68.19,88.74c5.73-4.45,7.36-4.44,13.11,0q24.27,18.83,48.54,37.67c1.26,1,2.58,1.86,4.29,3.08V62.3c-2.45,1.87-4.29,3.25-6.12,4.66C118.94,74,109.91,81.11,100.73,88c-1,.73-2.77.36-4.19.5a18.44,18.44,0,0,1,1.57-3.66,12.52,12.52,0,0,1,2.71-2.18L132.4,58.15,117.48,46.58c0,5.38.22,9.48-.11,13.54-.13,1.59-1.51,3.08-2.32,4.62-.66-1.53-1.85-3-1.88-4.58-.17-10.66-.25-21.33,0-32,.09-4.28-1.13-5.81-5.63-5.76q-32.72.31-65.45,0c-4.35,0-5.88,1.18-5.76,5.63.27,10.15.21,20.32,0,30.48,0,2.09-1.45,4.15-2.23,6.23-.7-2.16-1.8-4.27-2-6.48-.34-3.51-.09-7.09-.09-11.72ZM18.82,133H130.57a13.2,13.2,0,0,0-1.36-1.59C112,118,94.77,104.72,77.65,91.26c-2.65-2.09-4.34-1.15-6.5.54Q46.58,111,21.92,130.08C21,130.84,20.13,131.77,18.82,133ZM69.93,17.7h9.64C76.09,13.21,73.11,13.41,69.93,17.7Z"/><path class="cls-1" d="M83.17,62.35C72.79,67.15,64.55,64.14,62.4,55c-1.58-6.73,2.91-13.84,9.71-15,1.37-.23,2.93.69,4.4,1.08-1.05,1-1.93,2.41-3.17,2.89-5.83,2.22-8.86,6.82-6.21,11.39a12.35,12.35,0,0,0,7.68,5.1c4,.74,6.65-2,8.06-6,.52-1.45,1.88-2.6,2.86-3.89a25.09,25.09,0,0,1,1.83,4.62c.32,1.78-.42,3.88.25,5.42s2.52,3.9,3.91,3.94,3.89-2.27,4-3.7A48.46,48.46,0,0,0,95.2,47,20.87,20.87,0,0,0,73.79,31c-10.66.7-19.17,8.66-20.1,18.79-1,10.84,5.05,19.95,15.21,22.87a37.7,37.7,0,0,1,3.88.88,29,29,0,0,1,3.8,2.29c-1.5.59-3,1.75-4.49,1.69-10.65-.41-20.82-10-22.44-20.79-2.22-14.9,7.22-27.69,22-29.79,14-2,26.72,8.28,28.36,23.1a63,63,0,0,1,.28,10.46C100,64.9,98,68.22,93.32,69,89,69.8,86,67.81,84,64,83.72,63.45,83.45,62.9,83.17,62.35Z"/></svg>