<svg id="Layer_1" data-name="Layer 1" xmlns="http://www.w3.org/2000/svg" viewBox="0 0 150 150"><defs><style>.cls-1{fill:#ff0089;}</style></defs><path class="cls-1" d="M111.12,139.52c-13.26-.38-25-5.5-35.69-12.76C52.8,111.45,33.79,92.46,19.79,68.88,12.71,57,7.93,44.07,11.42,29.89c.92-3.71,3.69-7.39,6.55-10.09,3.08-2.9,7.22-4.7,11-6.85,4.1-2.34,7.88-1.62,10.53,2.22Q48.3,27.91,56.67,40.93c2.3,3.56,1.52,7-1.54,9.91-1.45,1.36-3.09,2.53-4.67,3.75-7.6,5.92-7.84,6.07-2.51,13.84,9.81,14.3,21.8,26.4,36.71,35.5,3.64,2.22,6,1.64,8.38-1.73,11.07-16,13.09-10.85,24.12-3.67,5.44,3.55,10.86,7.12,16.2,10.82s6.07,6.93,2.8,12.71c-1,1.74-2.22,3.36-3,5.16C128.78,136.7,121,139.91,111.12,139.52Zm.77-4.24c5-.41,10.75-.33,14.39-5.46,2.4-3.38,4.47-7,6.58-10.59,1.58-2.67.62-4.71-1.83-6.33q-11.44-7.58-22.84-15.24c-2.9-2-5.19-1.59-7.26,1.26-1.85,2.55-3.87,5-5.85,7.46-2.94,3.65-6.62,4.5-10.64,2.18A116,116,0,0,1,41.21,65.3c-2.31-4-1.42-7.71,2.25-10.62,2.48-2,4.92-4,7.47-5.85,2.87-2.09,3.12-4.41,1.18-7.28C48.37,36.05,44.75,30.46,41,24.94c-7.39-11-5.48-10.85-17.41-4-5.38,3.1-8.35,7.26-8.89,13.45a45.38,45.38,0,0,0,4.84,24.66c14.71,29.25,37.3,51.17,64.9,68.11A53,53,0,0,0,111.89,135.28Z"/><path class="cls-1" d="M123.16,68.5c-.27.36-1,1.41-1.8,2.47-.83-1.2-2.25-2.34-2.37-3.6-1-11.18-5.39-20.77-14.8-27-4.94-3.27-11.14-4.63-16.74-6.94-2.17-.89-4.25-2-6.37-3,2.37-.39,4.81-1.35,7.1-1.07C107.47,31.7,123.07,48.8,123.16,68.5Z"/><path class="cls-1" d="M110.25,68.66,108.38,71c-.75-1.1-1.95-2.12-2.18-3.32-2.5-13.4-8.36-19.32-21.63-21.9-1.28-.25-2.34-1.61-3.51-2.46,1.21-.56,2.41-1.6,3.62-1.6C97.49,41.7,110.48,54.93,110.25,68.66Z"/><path class="cls-1" d="M97.44,68.93,95.71,71c-.79-.73-2.14-1.37-2.28-2.21-.93-5.85-4.19-9.16-10-10.29-.92-.18-1.59-1.67-2.38-2.55,1.1-.49,2.19-1.39,3.29-1.4C90.83,54.53,97.57,61.5,97.44,68.93Z"/></svg>