<svg id="Layer_1" data-name="Layer 1" xmlns="http://www.w3.org/2000/svg" viewBox="0 0 406.25 86.12"><defs><style>.cls-1,.cls-2{fill:#2b303a;}.cls-1{opacity:0.3;}.cls-2{stroke:#2b303a;stroke-width:0.85px;}.cls-3{font-size:26.99px;fill:#a6adb4;font-family:Raleway;letter-spacing:0.46em;}.cls-4{letter-spacing:0.46em;}.cls-5{letter-spacing:0.46em;}.cls-6{fill:#fff;}.cls-7{fill:#00b5ad;}</style></defs><path class="cls-1" d="M373.78,15.9c8.72,7.77,6.06,43.22,1.22,50.54s-51.58,3.8-60.64,1-19.23,5.29-19.23,5.29L303,57.47s.41-30.19,6.9-37.52,55.16-11.82,63.88-4"/><path class="cls-2" d="M94.55,26.75c-2.6-2.27-6.1-3.35-10.29-3.35a15.58,15.58,0,0,0-6.89,1.47,14.13,14.13,0,0,0-4.26,3.26,13.66,13.66,0,0,0-4.2-3.24A15.61,15.61,0,0,0,62,23.4c-4.19,0-7.69,1.08-10.27,3.35A11.82,11.82,0,0,0,47.82,36V54.45h5.45V35.28a6.38,6.38,0,0,1,2.3-5.16,9.27,9.27,0,0,1,6.25-2,9.2,9.2,0,0,1,6.26,2,6.39,6.39,0,0,1,2.29,5.16V54.45h5.45V35.28a6.39,6.39,0,0,1,2.29-5.16,9.26,9.26,0,0,1,6.3-2,9.22,9.22,0,0,1,6.24,2A6.39,6.39,0,0,1,93,35.28V54.45h5.52V36A11.78,11.78,0,0,0,94.55,26.75Zm40.38,1.14a19.51,19.51,0,0,0-6.09-3.34,22.86,22.86,0,0,0-14.32,0,19.46,19.46,0,0,0-6.09,3.33,16.91,16.91,0,0,0-4.24,5.2,13.35,13.35,0,0,0,0,12.22,16.45,16.45,0,0,0,4.22,5.17,19.06,19.06,0,0,0,6.11,3.36,23,23,0,0,0,14.31,0,19,19,0,0,0,6.1-3.35,15.91,15.91,0,0,0,4.19-5.13,13.83,13.83,0,0,0,0-12.33A15.81,15.81,0,0,0,134.93,27.89Zm-3.79,19a15.35,15.35,0,0,1-19,0,9.91,9.91,0,0,1,0-15.57,15.42,15.42,0,0,1,19,0,9.92,9.92,0,0,1,0,15.57Zm27-22.35a20.68,20.68,0,0,0-5.78,2.06A17,17,0,0,0,146.24,32,12.82,12.82,0,0,0,144,39.2a13.06,13.06,0,0,0,6.08,11.23c4,2.73,9.25,4,15.75,4h3.88V49.77h-4.5c-4.78,0-8.54-1.06-11.4-3.07s-4.12-4.4-4.15-7.5a8.81,8.81,0,0,1,4.13-7.53c2.85-2,6.61-3.07,11.42-3.07h4.5V23.92h-3.88A39.54,39.54,0,0,0,158.11,24.56Zm92.15,6.29a18.13,18.13,0,0,0-7-5.54,22,22,0,0,0-9.21-1.91,20.34,20.34,0,0,0-13.39,4.4,14.18,14.18,0,0,0-5.43,11.4,13.65,13.65,0,0,0,1.39,6.09,15.75,15.75,0,0,0,4,5.12,18.09,18.09,0,0,0,6.11,3.41A23.51,23.51,0,0,0,234.19,55h0A22.66,22.66,0,0,0,241,54c1.51-.47,2.48-.86,2.48-.86V47a11.58,11.58,0,0,1-3.28,2.11,16.3,16.3,0,0,1-6,1.09A14.35,14.35,0,0,1,224.57,47a9.77,9.77,0,0,1-3.68-7.87,9.75,9.75,0,0,1,3.73-7.84,14.31,14.31,0,0,1,9.57-3.22c4.18,0,7.31,1.15,9.68,3.39s3.53,5.18,3.55,9.15v2.65h0V53.38h0v1.07h5.52V40.79a22.35,22.35,0,0,0-.62-5.6A12.27,12.27,0,0,0,250.26,30.85Zm34.41-3.7c-2.85-2.53-6.65-3.76-11.19-3.75s-8.34,1.22-11.19,3.75A13,13,0,0,0,258,37.34V54.45h5.45V36.59a7.61,7.61,0,0,1,2.7-6.11,12.41,12.41,0,0,1,14.67,0,7.59,7.59,0,0,1,2.71,6.11V54.45H289V37.34A13,13,0,0,0,284.67,27.15ZM205.4,39.44a10.7,10.7,0,0,1-4,7.75,15.56,15.56,0,0,1-18.74-.26,9.92,9.92,0,0,1,0-15.62A14.42,14.42,0,0,1,192.31,28a14.58,14.58,0,0,1,5.62,1,11.9,11.9,0,0,1,3.13,1.88L182.59,40.8l2.92,3.89,23.66-12.62-.86-1.15a17.94,17.94,0,0,0-6.87-5.63,21.12,21.12,0,0,0-9.06-1.89,23,23,0,0,0-7.31,1.14,19.15,19.15,0,0,0-6.16,3.34A16.27,16.27,0,0,0,174.67,33a13.6,13.6,0,0,0,0,12.3,15.78,15.78,0,0,0,4.24,5.14,19,19,0,0,0,6.1,3.35A22.4,22.4,0,0,0,192.16,55h0a20.22,20.22,0,0,0,13-4.25,15.05,15.05,0,0,0,5.87-11.09l.09-1.32h-5.66Zm-167.84,0a10.67,10.67,0,0,1-4,7.75,14,14,0,0,1-9.22,3,14.2,14.2,0,0,1-9.52-3.27,9.93,9.93,0,0,1,0-15.62A14.44,14.44,0,0,1,24.47,28a14.55,14.55,0,0,1,5.62,1,11.8,11.8,0,0,1,3.14,1.88L14.76,40.8l2.91,3.89L41.33,32.07l-.86-1.15a18,18,0,0,0-6.86-5.63,21.16,21.16,0,0,0-9.07-1.89,23.07,23.07,0,0,0-7.31,1.14,19.1,19.1,0,0,0-6.15,3.34A16,16,0,0,0,6.84,33a13.52,13.52,0,0,0,0,12.3,15.53,15.53,0,0,0,4.24,5.14,18.82,18.82,0,0,0,6.09,3.35A22.42,22.42,0,0,0,24.33,55h0a20.2,20.2,0,0,0,13-4.25,15.05,15.05,0,0,0,5.87-11.09l.09-1.32H37.65Z"/><text class="cls-3" transform="translate(124.39 79.59)">s<tspan class="cls-4" x="25.53" y="0">tudi</tspan><tspan x="122.75" y="0">o</tspan><tspan class="cls-5" x="151.2" y="0">s</tspan></text><path class="cls-6" d="M367.94,8.63c9.43,6.9,10.18,42.44,6.07,50.19s-51,8.73-60.27,6.8-18.64,7.11-18.64,7.11l6.37-15.94s-2.48-30.09,3.28-38S358.52,1.73,367.94,8.63"/><path class="cls-7" d="M363.43,32.71l3-.44L365,24a1.57,1.57,0,0,1,.36-1.15,4.51,4.51,0,0,1,1.13-1,8.46,8.46,0,0,1,1.65-.82,12.69,12.69,0,0,1,1.89-.54l-.89-4.13a13.59,13.59,0,0,0-2.8,1.42,9.75,9.75,0,0,0-2.07,1.83l-.35-2-3.17,1.25Zm-9.31-5a2.91,2.91,0,0,1,.75-.79,5.56,5.56,0,0,1,1.22-.66,9.66,9.66,0,0,1,1.57-.46c.06.66.1,1.35.11,2a10.81,10.81,0,0,1-.09,1.73,9.92,9.92,0,0,1-2.8-.24c-.58-.18-.9-.43-.95-.76a1.26,1.26,0,0,1,.19-.86m-2.49,3.55a5.26,5.26,0,0,0,1.89,1.24,13,13,0,0,0,3.06.79,30,30,0,0,0,4.32.27v-.9c0-.51.06-1.1.09-1.75s0-1.33.05-2,0-1.42-.05-2.15-.11-1.42-.2-2.08a16,16,0,0,0-.55-2.41,6.25,6.25,0,0,0-1-1.93,3.8,3.8,0,0,0-1.51-1.19,4,4,0,0,0-2.17-.21A5.08,5.08,0,0,0,353,20a6.36,6.36,0,0,0-1.7,2.65l2.56,1.57a4.28,4.28,0,0,1,.89-1.53,1.85,1.85,0,0,1,1-.49.92.92,0,0,1,.82.21,2.85,2.85,0,0,1,.57.83,13.74,13.74,0,0,0-2.77,1.18,9.15,9.15,0,0,0-2.05,1.54,5.9,5.9,0,0,0-1.23,1.77,3.48,3.48,0,0,0-.26,1.87,3.21,3.21,0,0,0,.81,1.71m-17.52,5.23,3.54-.46c-.08-.51-.15-1.12-.23-1.83s-.14-1.42-.17-2.17-.05-1.49-.05-2.22a15,15,0,0,1,.13-2,5.54,5.54,0,0,1,.4-1.47,1,1,0,0,1,.7-.63.53.53,0,0,1,.49.18,1.84,1.84,0,0,1,.39.62,7,7,0,0,1,.3.94c.08.37.15.75.21,1.16s.14,1.09.19,1.68.07,1.16.08,1.72,0,1.09,0,1.59V34.9l.06,1.27,3.68-.54c0-.09,0-.27-.06-.54s0-.48-.06-.62c-.07-.56-.13-1.17-.18-1.84s-.11-1.34-.14-2-.06-1.32-.05-2a11.72,11.72,0,0,1,.13-1.68,3.94,3.94,0,0,1,.36-1.21.89.89,0,0,1,.65-.53.69.69,0,0,1,.6.24,2.37,2.37,0,0,1,.47.81,8.35,8.35,0,0,1,.37,1.21q.15.7.27,1.44c.08.61.15,1.25.2,1.92s.08,1.31.09,1.92,0,1.15,0,1.63,0,.85,0,1.09l3.63.07q.06-1.14,0-2.43c0-.85-.13-1.73-.25-2.61a28.43,28.43,0,0,0-.75-3.55,15,15,0,0,0-1.23-3.13,6.86,6.86,0,0,0-1.7-2.15,2.67,2.67,0,0,0-2.17-.62,2.45,2.45,0,0,0-1.65.92,5.19,5.19,0,0,0-.93,2A5.25,5.25,0,0,0,340,22.07a2.66,2.66,0,0,0-2.16-.49,2.74,2.74,0,0,0-1.19.49,4.45,4.45,0,0,0-1,1l0-.48-3.19-.41q.44,3.88.72,6.41c.18,1.69.33,3,.45,4.07s.2,1.78.26,2.25.11.79.13.95Zm-9.67-5.13a4.56,4.56,0,0,1-.14-.64,4.37,4.37,0,0,1,0-1.14,3.27,3.27,0,0,1,.29-1,2.25,2.25,0,0,1,.6-.76,1.78,1.78,0,0,1,.94-.39,2.14,2.14,0,0,1,1.28.21,3.1,3.1,0,0,1,1.08.86c-.68.62-1.32,1.21-1.91,1.77s-1.22,1.14-1.87,1.77c-.1-.23-.18-.45-.25-.66m7.31-2.74a12.4,12.4,0,0,0-1.2-2.11A8.35,8.35,0,0,0,329,24.88a5.89,5.89,0,0,0-1.77-1,4,4,0,0,0-1.95-.18,4.88,4.88,0,0,0-2.31.9,5.24,5.24,0,0,0-1.47,1.68,5.63,5.63,0,0,0-.69,2.19,9.1,9.1,0,0,0,0,2.39,9.3,9.3,0,0,0,1,3.17,8,8,0,0,0,1.78,2.27,6.71,6.71,0,0,0,2.25,1.29,5.12,5.12,0,0,0,2.41.23,5.82,5.82,0,0,0,3.17-1.4,9.49,9.49,0,0,0,2.09-2.75l-2.06-2a7.43,7.43,0,0,1-.93,1.42,7.16,7.16,0,0,1-.95.91,4.37,4.37,0,0,1-.86.52,2.77,2.77,0,0,1-.64.2,2.52,2.52,0,0,1-1.76-.5ZM310.2,25.39a7,7,0,0,1,3.34.49A2.33,2.33,0,0,1,315,27.71a2.45,2.45,0,0,1-.92,2.23,7.29,7.29,0,0,1-3.21,1.53Zm-1.61,15.07,3.67-.53-.45-4.31.83-.29a10.76,10.76,0,0,0,1.25,2.22,4.38,4.38,0,0,0,1.63,1.33,6.3,6.3,0,0,0,2.35.56,26,26,0,0,0,3.46-.06V35.31a7.22,7.22,0,0,1-1.26.36,5.73,5.73,0,0,1-1.4.06,2.59,2.59,0,0,1-1.05-.33,2.76,2.76,0,0,1-.82-.75,5.7,5.7,0,0,1-.66-1.24c2.64-1.81,3.78-3.88,3.45-6.22a4.8,4.8,0,0,0-1.24-2.6,7.47,7.47,0,0,0-2.69-1.8,14.76,14.76,0,0,0-4-.93,26.89,26.89,0,0,0-5,0Z"/><path class="cls-7" d="M367.46,53.57l3.14-.76-.53-3.65-3.18.46Zm-9.66-5.44a4.27,4.27,0,0,1-.14-.64,4.37,4.37,0,0,1,0-1.14,3.09,3.09,0,0,1,.29-1,2.11,2.11,0,0,1,.6-.76,2,2,0,0,1,.93-.39,2.24,2.24,0,0,1,1.29.21,3.1,3.1,0,0,1,1.08.86L359.91,47,358,48.79a5.34,5.34,0,0,1-.24-.66m7.31-2.74a14.43,14.43,0,0,0-1.2-2.11,8.35,8.35,0,0,0-1.52-1.65,5.82,5.82,0,0,0-1.78-1,4.11,4.11,0,0,0-1.94-.18,5,5,0,0,0-2.32.9A5.34,5.34,0,0,0,354.88,43a6.11,6.11,0,0,0-.69,2.19,8.69,8.69,0,0,0,0,2.39,9.44,9.44,0,0,0,1,3.17A7.9,7.9,0,0,0,357,53a6.74,6.74,0,0,0,2.25,1.3,5.21,5.21,0,0,0,2.4.22,5.85,5.85,0,0,0,3.18-1.4,9.76,9.76,0,0,0,2.09-2.74l-2.06-2a7.44,7.44,0,0,1-.94,1.42,5.69,5.69,0,0,1-.95.91,3.67,3.67,0,0,1-.85.52,2.9,2.9,0,0,1-.64.21,2.56,2.56,0,0,1-1.77-.51ZM348.78,56.51l5.45-1.13-.32-3.88-2,1.23-.72-14.88L346.24,37l.29,3.23,1.26.1Zm-9.11-6c-.06-1.13-.15-2.33-.24-3.57a7.24,7.24,0,0,1,1.61.53,6.4,6.4,0,0,1,1.33.79,4.47,4.47,0,0,1,.94,1,2.92,2.92,0,0,1,.45,1.16l0,.22a2.78,2.78,0,0,1-.83,2.22,5.5,5.5,0,0,1-3.09,1.25c-.06-1.26-.13-2.47-.2-3.61m-3,7a16.32,16.32,0,0,0,4.53.1,7.59,7.59,0,0,0,3-1A6,6,0,0,0,346,54.73a5.75,5.75,0,0,0,.9-2.24,7.5,7.5,0,0,0,0-2.41,6,6,0,0,0-.85-2.3,9.19,9.19,0,0,0-1.77-2.06A12.73,12.73,0,0,0,341.83,44a15.32,15.32,0,0,0-3.12-1.21l-.19-4.77-3.12.79ZM328.43,53a2.91,2.91,0,0,1,.75-.79,5.34,5.34,0,0,1,1.22-.65,9.65,9.65,0,0,1,1.57-.47c.06.67.1,1.35.1,2a11,11,0,0,1-.08,1.74,10.18,10.18,0,0,1-2.8-.25c-.58-.17-.9-.43-.95-.76a1.27,1.27,0,0,1,.19-.86m-2.49,3.55a5.27,5.27,0,0,0,1.89,1.25,13.05,13.05,0,0,0,3.06.78,31.4,31.4,0,0,0,4.32.28V58c0-.51,0-1.09.08-1.74s.05-1.34.06-2,0-1.42-.05-2.15-.11-1.43-.21-2.09a14.53,14.53,0,0,0-.54-2.4,6.36,6.36,0,0,0-1-1.93,3.74,3.74,0,0,0-1.51-1.2,3.93,3.93,0,0,0-2.17-.2,5.16,5.16,0,0,0-2.56,1,6.26,6.26,0,0,0-1.7,2.65l2.56,1.57a4.31,4.31,0,0,1,.89-1.52,1.74,1.74,0,0,1,1-.49.92.92,0,0,1,.82.2,3.38,3.38,0,0,1,.57.84,13.5,13.5,0,0,0-2.77,1.18,8.83,8.83,0,0,0-2.05,1.53A5.9,5.9,0,0,0,325.39,53a3.53,3.53,0,0,0-.26,1.88,3.11,3.11,0,0,0,.81,1.7m-11,4.89,3.44-1c0-.67,0-1.39-.07-2.14s-.07-1.5-.09-2.23l4.71,5.41,2.32-3.19-2.7-2.54c-.94-.88-1.84-1.74-2.71-2.57L324,46.92l-3.1-1.69-1.58,2.71-1.6,2.74-.28-8.22-3.56-.25Z"/></svg>